<svg width="200" height="56" viewBox="0 0 200 56" fill="none" xmlns="http://www.w3.org/2000/svg">
<circle cx="27.9835" cy="27.9835" r="27.9835" fill="#FFB342"/>
<path d="M38.8896 33.5853C38.1356 32.8256 36.3093 31.7169 35.4233 31.2701C34.2694 30.6889 34.1744 30.6415 33.2675 31.3152C32.6625 31.7649 32.2603 32.1666 31.5523 32.0156C30.8443 31.8646 29.3058 31.0132 27.9587 29.6705C26.6115 28.3277 25.7108 26.7447 25.5593 26.0391C25.4078 25.3335 25.8162 24.9361 26.2616 24.3298C26.8893 23.4751 26.8418 23.3326 26.3053 22.1789C25.8869 21.2815 24.7459 19.4724 23.9833 18.7222C23.1675 17.9165 23.1675 18.0589 22.6418 18.2773C22.2139 18.4574 21.8033 18.6762 21.4153 18.9311C20.6556 19.4359 20.2339 19.8551 19.939 20.4852C19.6441 21.1153 19.5117 22.5924 21.0345 25.3587C22.5573 28.1249 23.6257 29.5394 25.8371 31.7444C28.0484 33.9495 29.7488 35.1351 32.2347 36.5291C35.3098 38.2513 36.4893 37.9156 37.1213 37.6212C37.7533 37.3268 38.1745 36.909 38.6802 36.1493C38.9358 35.7619 39.1552 35.3519 39.3355 34.9243C39.5544 34.4006 39.6969 34.4005 38.8896 33.5853Z" stroke="#1C2752" stroke-width="1.64609" stroke-miterlimit="10"/>
<path d="M75.8008 16.3803H73.2405C73.1938 16.0491 73.0983 15.7548 72.9541 15.4976C72.8099 15.2365 72.6248 15.0144 72.3988 14.8312C72.1727 14.6481 71.9116 14.5078 71.6155 14.4104C71.3232 14.3129 71.0056 14.2642 70.6627 14.2642C70.043 14.2642 69.5033 14.4182 69.0435 14.726C68.5836 15.03 68.227 15.4742 67.9737 16.0588C67.7204 16.6394 67.5938 17.3448 67.5938 18.1749C67.5938 19.0283 67.7204 19.7453 67.9737 20.326C68.2309 20.9067 68.5895 21.3451 69.0493 21.6412C69.5091 21.9374 70.0411 22.0855 70.6451 22.0855C70.9842 22.0855 71.2979 22.0407 71.5862 21.951C71.8785 21.8614 72.1377 21.7309 72.3637 21.5594C72.5897 21.384 72.7768 21.1716 72.9249 20.9222C73.0768 20.6728 73.1821 20.3884 73.2405 20.0688L75.8008 20.0805C75.7346 20.63 75.569 21.16 75.304 21.6705C75.0429 22.1771 74.6902 22.6311 74.2459 23.0325C73.8056 23.43 73.2795 23.7456 72.6677 23.9794C72.0597 24.2094 71.3719 24.3243 70.6042 24.3243C69.5364 24.3243 68.5817 24.0827 67.7399 23.5995C66.9021 23.1162 66.2396 22.4167 65.7524 21.5009C65.2692 20.5852 65.0276 19.4765 65.0276 18.1749C65.0276 16.8694 65.2731 15.7587 65.7641 14.8429C66.2552 13.9271 66.9215 13.2296 67.7633 12.7502C68.605 12.267 69.552 12.0254 70.6042 12.0254C71.2979 12.0254 71.9409 12.1228 72.5332 12.3177C73.1295 12.5125 73.6575 12.797 74.1173 13.1711C74.5772 13.5413 74.9513 13.9953 75.2397 14.5331C75.5319 15.0709 75.719 15.6866 75.8008 16.3803ZM80.1294 24.3302C79.5566 24.3302 79.0461 24.2308 78.5979 24.032C78.1498 23.8294 77.7951 23.5313 77.534 23.1377C77.2768 22.7402 77.1482 22.2453 77.1482 21.6529C77.1482 21.1541 77.2398 20.7352 77.423 20.3961C77.6061 20.0571 77.8555 19.7843 78.1712 19.5778C78.4868 19.3712 78.8454 19.2154 79.2468 19.1101C79.652 19.0049 80.0768 18.9309 80.5211 18.888C81.0433 18.8335 81.4641 18.7828 81.7837 18.736C82.1033 18.6854 82.3351 18.6113 82.4793 18.5139C82.6235 18.4165 82.6956 18.2723 82.6956 18.0813V18.0463C82.6956 17.676 82.5787 17.3896 82.3449 17.187C82.1149 16.9843 81.7876 16.883 81.3628 16.883C80.9147 16.883 80.5581 16.9824 80.2931 17.1811C80.0281 17.376 79.8527 17.6215 79.767 17.9177L77.4639 17.7306C77.5808 17.185 77.8107 16.7135 78.1537 16.316C78.4966 15.9146 78.9389 15.6067 79.4806 15.3924C80.0262 15.1742 80.6575 15.0651 81.3745 15.0651C81.8733 15.0651 82.3507 15.1235 82.8067 15.2404C83.2665 15.3573 83.6737 15.5385 84.0284 15.7841C84.3869 16.0296 84.6694 16.3452 84.876 16.731C85.0825 17.1129 85.1858 17.5708 85.1858 18.1047V24.1606H82.8242V22.9156H82.7541C82.6099 23.1961 82.417 23.4436 82.1754 23.6579C81.9337 23.8684 81.6434 24.034 81.3044 24.1548C80.9653 24.2717 80.5737 24.3302 80.1294 24.3302ZM80.8426 22.6116C81.2089 22.6116 81.5323 22.5395 81.8129 22.3953C82.0935 22.2472 82.3137 22.0485 82.4735 21.7991C82.6332 21.5497 82.7131 21.2671 82.7131 20.9515V19.9987C82.6352 20.0493 82.528 20.0961 82.3916 20.1389C82.2591 20.1779 82.1091 20.2149 81.9415 20.25C81.774 20.2812 81.6064 20.3104 81.4388 20.3377C81.2712 20.3611 81.1193 20.3825 80.9829 20.402C80.6906 20.4449 80.4353 20.5131 80.2171 20.6066C79.9989 20.7001 79.8294 20.8268 79.7086 20.9865C79.5877 21.1424 79.5273 21.3373 79.5273 21.5711C79.5273 21.9101 79.6501 22.1693 79.8956 22.3485C80.145 22.5239 80.4607 22.6116 80.8426 22.6116ZM89.6079 12.1891V24.1606H87.1177V12.1891H89.6079ZM94.0928 12.1891V24.1606H91.6027V12.1891H94.0928ZM107.339 12.1891H109.87V19.9636C109.87 20.8365 109.661 21.6003 109.244 22.255C108.831 22.9097 108.253 23.4202 107.508 23.7865C106.764 24.149 105.897 24.3302 104.907 24.3302C103.913 24.3302 103.044 24.149 102.3 23.7865C101.556 23.4202 100.977 22.9097 100.564 22.255C100.151 21.6003 99.9442 20.8365 99.9442 19.9636V12.1891H102.475V19.7473C102.475 20.2032 102.575 20.6085 102.773 20.9632C102.976 21.3178 103.261 21.5964 103.627 21.7991C103.993 22.0017 104.42 22.103 104.907 22.103C105.398 22.103 105.825 22.0017 106.187 21.7991C106.553 21.5964 106.836 21.3178 107.035 20.9632C107.237 20.6085 107.339 20.2032 107.339 19.7473V12.1891ZM119.376 17.7423L117.096 17.8826C117.057 17.6877 116.974 17.5124 116.845 17.3565C116.716 17.1967 116.547 17.0701 116.336 16.9765C116.13 16.8791 115.882 16.8304 115.594 16.8304C115.208 16.8304 114.883 16.9122 114.618 17.0759C114.353 17.2357 114.22 17.45 114.22 17.7189C114.22 17.9332 114.306 18.1145 114.478 18.2625C114.649 18.4106 114.943 18.5295 115.36 18.6191L116.985 18.9465C117.858 19.1257 118.509 19.4141 118.938 19.8116C119.366 20.2091 119.581 20.7313 119.581 21.3782C119.581 21.9666 119.407 22.483 119.06 22.9272C118.717 23.3715 118.246 23.7183 117.646 23.9677C117.05 24.2133 116.362 24.336 115.582 24.336C114.394 24.336 113.447 24.0886 112.741 23.5936C112.04 23.0948 111.629 22.4167 111.508 21.5594L113.957 21.4308C114.031 21.7932 114.211 22.0699 114.495 22.2609C114.78 22.4479 115.144 22.5414 115.588 22.5414C116.025 22.5414 116.375 22.4577 116.64 22.2901C116.909 22.1186 117.046 21.8984 117.05 21.6295C117.046 21.4035 116.95 21.2184 116.763 21.0742C116.576 20.9261 116.288 20.8131 115.898 20.7352L114.343 20.4254C113.466 20.25 112.814 19.946 112.385 19.5135C111.96 19.0809 111.748 18.5295 111.748 17.8592C111.748 17.2824 111.904 16.7856 112.215 16.3686C112.531 15.9516 112.973 15.6301 113.542 15.4041C114.115 15.1781 114.785 15.0651 115.553 15.0651C116.687 15.0651 117.58 15.3047 118.23 15.7841C118.885 16.2634 119.267 16.9161 119.376 17.7423Z" fill="#1C2752"/>
<path d="M68.4905 41.9127V34.9683H69.6689V41.9127H68.4905ZM65.6075 39.0297V37.8513H72.5519V39.0297H65.6075ZM78.5928 43.9539C77.8001 43.9539 77.125 43.7382 76.5673 43.3069C76.0097 42.8719 75.5835 42.2424 75.2889 41.4182C74.9943 40.5905 74.847 39.5909 74.847 38.4194C74.847 37.255 74.9943 36.2607 75.2889 35.4365C75.587 34.6088 76.0149 33.9774 76.5726 33.5425C77.1338 33.1041 77.8072 32.8849 78.5928 32.8849C79.3784 32.8849 80.0501 33.1041 80.6077 33.5425C81.1689 33.9774 81.5968 34.6088 81.8914 35.4365C82.1895 36.2607 82.3386 37.255 82.3386 38.4194C82.3386 39.5909 82.1913 40.5905 81.8967 41.4182C81.6021 42.2424 81.1759 42.8719 80.6183 43.3069C80.0606 43.7382 79.3854 43.9539 78.5928 43.9539ZM78.5928 42.7965C79.3784 42.7965 79.9887 42.4178 80.4236 41.6602C80.8585 40.9026 81.076 39.8224 81.076 38.4194C81.076 37.4865 80.976 36.6921 80.7761 36.0362C80.5797 35.3804 80.2956 34.8806 79.9238 34.5369C79.5555 34.1931 79.1119 34.0213 78.5928 34.0213C77.8142 34.0213 77.2057 34.4053 76.7672 35.1734C76.3288 35.938 76.1096 37.02 76.1096 38.4194C76.1096 39.3524 76.2078 40.145 76.4042 40.7974C76.6007 41.4497 76.883 41.946 77.2513 42.2862C77.623 42.6264 78.0702 42.7965 78.5928 42.7965ZM88.1256 33.0322V43.8066H86.8209V34.4001H86.7578L84.1273 36.1467V34.821L86.8209 33.0322H88.1256ZM98.758 43.9539C98.1407 43.9539 97.5848 43.8312 97.0903 43.5857C96.5957 43.3402 96.1994 43.0035 95.9013 42.5756C95.6032 42.1477 95.4401 41.6602 95.412 41.113H96.6747C96.7238 41.6006 96.9447 42.0039 97.3375 42.3231C97.7339 42.6387 98.2073 42.7965 98.758 42.7965C99.1999 42.7965 99.5927 42.6931 99.9364 42.4861C100.284 42.2792 100.555 41.9951 100.752 41.6339C100.952 41.2691 101.052 40.857 101.052 40.3975C101.052 39.9276 100.948 39.5085 100.741 39.1402C100.538 38.7684 100.257 38.4756 99.8996 38.2616C99.5419 38.0477 99.1333 37.9389 98.6738 37.9354C98.3441 37.9319 98.0057 37.9828 97.6585 38.088C97.3112 38.1897 97.0254 38.3212 96.8009 38.4826L95.5804 38.3353L96.2327 33.0322H101.83V34.1896H97.327L96.9482 37.3672H97.0114C97.2323 37.1919 97.5094 37.0463 97.8426 36.9306C98.1758 36.8148 98.523 36.757 98.8843 36.757C99.5436 36.757 100.131 36.9148 100.647 37.2305C101.166 37.5426 101.573 37.9705 101.867 38.5141C102.165 39.0578 102.314 39.6786 102.314 40.3765C102.314 41.0639 102.16 41.6777 101.851 42.2178C101.546 42.7545 101.125 43.1788 100.589 43.491C100.052 43.7996 99.4419 43.9539 98.758 43.9539ZM107.982 43.9539C107.54 43.9469 107.098 43.8628 106.656 43.7014C106.214 43.5401 105.811 43.2683 105.446 42.886C105.081 42.5002 104.788 41.9793 104.567 41.3235C104.346 40.6641 104.236 39.8364 104.236 38.8403C104.236 37.8863 104.325 37.0411 104.504 36.3045C104.683 35.5645 104.943 34.942 105.283 34.4369C105.623 33.9283 106.033 33.5425 106.514 33.2795C106.998 33.0164 107.543 32.8849 108.15 32.8849C108.753 32.8849 109.29 33.0059 109.76 33.2479C110.233 33.4864 110.619 33.8196 110.917 34.2475C111.215 34.6754 111.408 35.1682 111.496 35.7258H110.212C110.093 35.2418 109.862 34.8402 109.518 34.5211C109.174 34.2019 108.718 34.0423 108.15 34.0423C107.315 34.0423 106.658 34.4053 106.177 35.1313C105.7 35.8574 105.46 36.8762 105.456 38.188H105.541C105.737 37.8898 105.97 37.6356 106.24 37.4251C106.514 37.2112 106.816 37.0463 107.145 36.9306C107.475 36.8148 107.824 36.757 108.192 36.757C108.809 36.757 109.374 36.9113 109.886 37.2199C110.398 37.5251 110.809 37.9477 111.117 38.4878C111.426 39.0244 111.58 39.64 111.58 40.3344C111.58 41.0008 111.431 41.6111 111.133 42.1652C110.835 42.7159 110.416 43.1543 109.876 43.4805C109.339 43.8031 108.708 43.961 107.982 43.9539ZM107.982 42.7965C108.424 42.7965 108.82 42.6861 109.171 42.4651C109.525 42.2441 109.804 41.9478 110.007 41.576C110.214 41.2042 110.318 40.7904 110.318 40.3344C110.318 39.889 110.218 39.4839 110.018 39.1191C109.821 38.7509 109.549 38.458 109.202 38.2406C108.859 38.0231 108.466 37.9144 108.024 37.9144C107.691 37.9144 107.38 37.981 107.093 38.1143C106.805 38.2441 106.553 38.4229 106.335 38.6509C106.121 38.8789 105.953 39.1402 105.83 39.4348C105.707 39.7259 105.646 40.0328 105.646 40.3555C105.646 40.7834 105.746 41.1832 105.946 41.555C106.149 41.9267 106.426 42.2266 106.777 42.4546C107.131 42.6826 107.533 42.7965 107.982 42.7965ZM117.079 32.8849C117.521 32.8884 117.963 32.9726 118.405 33.1374C118.847 33.3023 119.25 33.5759 119.615 33.9582C119.98 34.3369 120.273 34.8543 120.494 35.5101C120.715 36.166 120.825 36.9885 120.825 37.9775C120.825 38.935 120.734 39.7855 120.551 40.5291C120.373 41.2691 120.113 41.8934 119.773 42.402C119.436 42.9105 119.026 43.2963 118.542 43.5594C118.061 43.8224 117.518 43.9539 116.911 43.9539C116.308 43.9539 115.769 43.8347 115.296 43.5962C114.826 43.3542 114.44 43.0193 114.138 42.5914C113.84 42.16 113.649 41.6602 113.565 41.092H114.849C114.964 41.5865 115.194 41.9951 115.538 42.3178C115.885 42.637 116.343 42.7965 116.911 42.7965C117.742 42.7965 118.398 42.4335 118.878 41.7075C119.362 40.9815 119.604 39.9556 119.604 38.6299H119.52C119.324 38.9245 119.091 39.1788 118.821 39.3927C118.551 39.6067 118.251 39.7715 117.921 39.8872C117.591 40.003 117.241 40.0608 116.869 40.0608C116.252 40.0608 115.685 39.9083 115.17 39.6031C114.657 39.2945 114.247 38.8719 113.938 38.3353C113.633 37.7951 113.481 37.1779 113.481 36.4834C113.481 35.824 113.628 35.2208 113.923 34.6736C114.221 34.123 114.638 33.6846 115.175 33.3584C115.715 33.0322 116.35 32.8744 117.079 32.8849ZM117.079 34.0423C116.637 34.0423 116.239 34.1528 115.885 34.3738C115.534 34.5912 115.255 34.8858 115.048 35.2576C114.845 35.6259 114.743 36.0345 114.743 36.4834C114.743 36.9323 114.842 37.3409 115.038 37.7092C115.238 38.074 115.51 38.3651 115.853 38.5825C116.201 38.7965 116.595 38.9034 117.037 38.9034C117.37 38.9034 117.681 38.8386 117.968 38.7088C118.256 38.5755 118.507 38.3949 118.721 38.1669C118.938 37.9354 119.108 37.6741 119.231 37.383C119.354 37.0884 119.415 36.7815 119.415 36.4624C119.415 36.0415 119.313 35.6469 119.11 35.2787C118.91 34.9104 118.633 34.6123 118.279 34.3843C117.928 34.1563 117.528 34.0423 117.079 34.0423ZM130.512 43.9539C129.789 43.9539 129.151 43.8259 128.597 43.5699C128.046 43.3104 127.616 42.9544 127.308 42.5019C126.999 42.046 126.847 41.5269 126.85 40.9447C126.847 40.4887 126.936 40.0679 127.118 39.6821C127.301 39.2928 127.55 38.9683 127.865 38.7088C128.185 38.4457 128.541 38.2791 128.933 38.209V38.1459C128.418 38.0126 128.008 37.7232 127.702 37.2778C127.397 36.8289 127.246 36.3186 127.25 35.7469C127.246 35.1997 127.385 34.7105 127.666 34.2791C127.946 33.8477 128.332 33.5075 128.823 33.2585C129.317 33.0094 129.88 32.8849 130.512 32.8849C131.136 32.8849 131.694 33.0094 132.185 33.2585C132.676 33.5075 133.062 33.8477 133.342 34.2791C133.626 34.7105 133.77 35.1997 133.774 35.7469C133.77 36.3186 133.614 36.8289 133.305 37.2778C133 37.7232 132.595 38.0126 132.09 38.1459V38.209C132.479 38.2791 132.83 38.4457 133.142 38.7088C133.454 38.9683 133.703 39.2928 133.889 39.6821C134.075 40.0679 134.17 40.4887 134.173 40.9447C134.17 41.5269 134.012 42.046 133.7 42.5019C133.391 42.9544 132.962 43.3104 132.411 43.5699C131.864 43.8259 131.231 43.9539 130.512 43.9539ZM130.512 42.7965C130.999 42.7965 131.42 42.7176 131.774 42.5598C132.129 42.402 132.402 42.1793 132.595 41.8917C132.788 41.6041 132.886 41.2674 132.89 40.8816C132.886 40.4747 132.781 40.1152 132.574 39.8031C132.367 39.4909 132.085 39.2454 131.727 39.0665C131.373 38.8877 130.968 38.7982 130.512 38.7982C130.052 38.7982 129.642 38.8877 129.281 39.0665C128.923 39.2454 128.641 39.4909 128.434 39.8031C128.23 40.1152 128.13 40.4747 128.134 40.8816C128.13 41.2674 128.223 41.6041 128.413 41.8917C128.606 42.1793 128.881 42.402 129.239 42.5598C129.596 42.7176 130.021 42.7965 130.512 42.7965ZM130.512 37.6829C130.898 37.6829 131.239 37.6057 131.538 37.4514C131.839 37.2971 132.076 37.0814 132.248 36.8043C132.42 36.5272 132.507 36.2028 132.511 35.8311C132.507 35.4663 132.421 35.1489 132.253 34.8788C132.085 34.6053 131.852 34.3948 131.553 34.2475C131.255 34.0967 130.908 34.0213 130.512 34.0213C130.108 34.0213 129.756 34.0967 129.454 34.2475C129.153 34.3948 128.919 34.6053 128.755 34.8788C128.59 35.1489 128.509 35.4663 128.513 35.8311C128.509 36.2028 128.591 36.5272 128.76 36.8043C128.932 37.0814 129.168 37.2971 129.47 37.4514C129.772 37.6057 130.119 37.6829 130.512 37.6829ZM139.62 32.8849C140.062 32.8884 140.504 32.9726 140.945 33.1374C141.387 33.3023 141.791 33.5759 142.156 33.9582C142.52 34.3369 142.813 34.8543 143.034 35.5101C143.255 36.166 143.366 36.9885 143.366 37.9775C143.366 38.935 143.274 39.7855 143.092 40.5291C142.913 41.2691 142.654 41.8934 142.313 42.402C141.977 42.9105 141.566 43.2963 141.082 43.5594C140.602 43.8224 140.058 43.9539 139.451 43.9539C138.848 43.9539 138.31 43.8347 137.836 43.5962C137.366 43.3542 136.98 43.0193 136.679 42.5914C136.381 42.16 136.19 41.6602 136.105 41.092H137.389C137.505 41.5865 137.735 41.9951 138.078 42.3178C138.426 42.637 138.883 42.7965 139.451 42.7965C140.283 42.7965 140.938 42.4335 141.419 41.7075C141.903 40.9815 142.145 39.9556 142.145 38.6299H142.061C141.864 38.9245 141.631 39.1788 141.361 39.3927C141.091 39.6067 140.791 39.7715 140.461 39.8872C140.132 40.003 139.781 40.0608 139.409 40.0608C138.792 40.0608 138.226 39.9083 137.71 39.6031C137.198 39.2945 136.788 38.8719 136.479 38.3353C136.174 37.7951 136.021 37.1779 136.021 36.4834C136.021 35.824 136.169 35.2208 136.463 34.6736C136.761 34.123 137.179 33.6846 137.715 33.3584C138.255 33.0322 138.89 32.8744 139.62 32.8849ZM139.62 34.0423C139.178 34.0423 138.78 34.1528 138.426 34.3738C138.075 34.5912 137.796 34.8858 137.589 35.2576C137.386 35.6259 137.284 36.0345 137.284 36.4834C137.284 36.9323 137.382 37.3409 137.578 37.7092C137.778 38.074 138.05 38.3651 138.394 38.5825C138.741 38.7965 139.136 38.9034 139.578 38.9034C139.911 38.9034 140.221 38.8386 140.509 38.7088C140.796 38.5755 141.047 38.3949 141.261 38.1669C141.479 37.9354 141.649 37.6741 141.771 37.383C141.894 37.0884 141.956 36.7815 141.956 36.4624C141.956 36.0415 141.854 35.6469 141.65 35.2787C141.451 34.9104 141.173 34.6123 140.819 34.3843C140.468 34.1563 140.069 34.0423 139.62 34.0423ZM149.012 43.9539C148.57 43.9469 148.128 43.8628 147.686 43.7014C147.244 43.5401 146.841 43.2683 146.476 42.886C146.111 42.5002 145.818 41.9793 145.597 41.3235C145.377 40.6641 145.266 39.8364 145.266 38.8403C145.266 37.8863 145.355 37.0411 145.534 36.3045C145.713 35.5645 145.973 34.942 146.313 34.4369C146.653 33.9283 147.064 33.5425 147.544 33.2795C148.028 33.0164 148.573 32.8849 149.18 32.8849C149.783 32.8849 150.32 33.0059 150.79 33.2479C151.264 33.4864 151.649 33.8196 151.947 34.2475C152.246 34.6754 152.438 35.1682 152.526 35.7258H151.242C151.123 35.2418 150.892 34.8402 150.548 34.5211C150.204 34.2019 149.748 34.0423 149.18 34.0423C148.345 34.0423 147.688 34.4053 147.207 35.1313C146.73 35.8574 146.49 36.8762 146.487 38.188H146.571C146.767 37.8898 147 37.6356 147.27 37.4251C147.544 37.2112 147.846 37.0463 148.175 36.9306C148.505 36.8148 148.854 36.757 149.222 36.757C149.84 36.757 150.404 36.9113 150.916 37.2199C151.428 37.5251 151.839 37.9477 152.147 38.4878C152.456 39.0244 152.61 39.64 152.61 40.3344C152.61 41.0008 152.461 41.6111 152.163 42.1652C151.865 42.7159 151.446 43.1543 150.906 43.4805C150.369 43.8031 149.738 43.961 149.012 43.9539ZM149.012 42.7965C149.454 42.7965 149.85 42.6861 150.201 42.4651C150.555 42.2441 150.834 41.9478 151.037 41.576C151.244 41.2042 151.348 40.7904 151.348 40.3344C151.348 39.889 151.248 39.4839 151.048 39.1191C150.851 38.7509 150.58 38.458 150.232 38.2406C149.889 38.0231 149.496 37.9144 149.054 37.9144C148.721 37.9144 148.41 37.981 148.123 38.1143C147.835 38.2441 147.583 38.4229 147.365 38.6509C147.151 38.8789 146.983 39.1402 146.86 39.4348C146.737 39.7259 146.676 40.0328 146.676 40.3555C146.676 40.7834 146.776 41.1832 146.976 41.555C147.179 41.9267 147.456 42.2266 147.807 42.4546C148.161 42.6826 148.563 42.7965 149.012 42.7965ZM162.423 43.9539C161.981 43.9469 161.539 43.8628 161.098 43.7014C160.656 43.5401 160.252 43.2683 159.888 42.886C159.523 42.5002 159.23 41.9793 159.009 41.3235C158.788 40.6641 158.677 39.8364 158.677 38.8403C158.677 37.8863 158.767 37.0411 158.946 36.3045C159.125 35.5645 159.384 34.942 159.724 34.4369C160.065 33.9283 160.475 33.5425 160.955 33.2795C161.439 33.0164 161.985 32.8849 162.592 32.8849C163.195 32.8849 163.732 33.0059 164.201 33.2479C164.675 33.4864 165.061 33.8196 165.359 34.2475C165.657 34.6754 165.85 35.1682 165.938 35.7258H164.654C164.535 35.2418 164.303 34.8402 163.959 34.5211C163.616 34.2019 163.16 34.0423 162.592 34.0423C161.757 34.0423 161.099 34.4053 160.619 35.1313C160.142 35.8574 159.902 36.8762 159.898 38.188H159.982C160.179 37.8898 160.412 37.6356 160.682 37.4251C160.955 37.2112 161.257 37.0463 161.587 36.9306C161.916 36.8148 162.265 36.757 162.634 36.757C163.251 36.757 163.816 36.9113 164.328 37.2199C164.84 37.5251 165.25 37.9477 165.559 38.4878C165.867 39.0244 166.022 39.64 166.022 40.3344C166.022 41.0008 165.873 41.6111 165.575 42.1652C165.276 42.7159 164.857 43.1543 164.317 43.4805C163.781 43.8031 163.149 43.961 162.423 43.9539ZM162.423 42.7965C162.865 42.7965 163.262 42.6861 163.612 42.4651C163.967 42.2441 164.245 41.9478 164.449 41.576C164.656 41.2042 164.759 40.7904 164.759 40.3344C164.759 39.889 164.659 39.4839 164.459 39.1191C164.263 38.7509 163.991 38.458 163.644 38.2406C163.3 38.0231 162.907 37.9144 162.465 37.9144C162.132 37.9144 161.822 37.981 161.534 38.1143C161.247 38.2441 160.994 38.4229 160.777 38.6509C160.563 38.8789 160.394 39.1402 160.272 39.4348C160.149 39.7259 160.087 40.0328 160.087 40.3555C160.087 40.7834 160.187 41.1832 160.387 41.555C160.591 41.9267 160.868 42.2266 161.219 42.4546C161.573 42.6826 161.974 42.7965 162.423 42.7965ZM171.458 43.9539C170.84 43.9539 170.284 43.8312 169.79 43.5857C169.295 43.3402 168.899 43.0035 168.601 42.5756C168.303 42.1477 168.14 41.6602 168.112 41.113H169.374C169.423 41.6006 169.644 42.0039 170.037 42.3231C170.434 42.6387 170.907 42.7965 171.458 42.7965C171.9 42.7965 172.292 42.6931 172.636 42.4861C172.983 42.2792 173.255 41.9951 173.452 41.6339C173.651 41.2691 173.751 40.857 173.751 40.3975C173.751 39.9276 173.648 39.5085 173.441 39.1402C173.238 38.7684 172.957 38.4756 172.599 38.2616C172.242 38.0477 171.833 37.9389 171.373 37.9354C171.044 37.9319 170.705 37.9828 170.358 38.088C170.011 38.1897 169.725 38.3212 169.501 38.4826L168.28 38.3353L168.932 33.0322H174.53V34.1896H170.027L169.648 37.3672H169.711C169.932 37.1919 170.209 37.0463 170.542 36.9306C170.875 36.8148 171.223 36.757 171.584 36.757C172.243 36.757 172.831 36.9148 173.346 37.2305C173.865 37.5426 174.272 37.9705 174.567 38.5141C174.865 39.0578 175.014 39.6786 175.014 40.3765C175.014 41.0639 174.86 41.6777 174.551 42.2178C174.246 42.7545 173.825 43.1788 173.288 43.491C172.752 43.7996 172.142 43.9539 171.458 43.9539ZM176.851 41.597V40.5238L181.586 33.0322H182.365V34.6947H181.839L178.261 40.3555V40.4396H184.638V41.597H176.851ZM181.923 43.8066V41.2709V40.7711V33.0322H183.165V43.8066H181.923Z" fill="#7E7E7E"/>
</svg>
