<svg width="56" height="56" viewBox="0 0 56 56" fill="none" xmlns="http://www.w3.org/2000/svg">
<circle cx="27.9835" cy="27.9835" r="27.9835" fill="#FFB342"/>
<path d="M38.8896 33.5853C38.1356 32.8256 36.3093 31.7169 35.4233 31.2701C34.2694 30.6889 34.1744 30.6415 33.2675 31.3152C32.6625 31.7649 32.2603 32.1666 31.5523 32.0156C30.8443 31.8646 29.3058 31.0132 27.9587 29.6705C26.6115 28.3277 25.7108 26.7447 25.5593 26.0391C25.4078 25.3335 25.8162 24.9361 26.2616 24.3298C26.8893 23.4751 26.8418 23.3326 26.3053 22.1789C25.8869 21.2815 24.7459 19.4724 23.9833 18.7222C23.1675 17.9165 23.1675 18.0589 22.6418 18.2773C22.2139 18.4574 21.8033 18.6762 21.4153 18.9311C20.6556 19.4359 20.2339 19.8551 19.939 20.4852C19.6441 21.1153 19.5117 22.5924 21.0345 25.3587C22.5573 28.1249 23.6257 29.5394 25.8371 31.7444C28.0484 33.9495 29.7488 35.1351 32.2347 36.5291C35.3098 38.2513 36.4893 37.9156 37.1213 37.6212C37.7533 37.3268 38.1745 36.909 38.6802 36.1493C38.9358 35.7619 39.1552 35.3519 39.3355 34.9243C39.5544 34.4006 39.6969 34.4005 38.8896 33.5853Z" stroke="#1C2752" stroke-width="1.64609" stroke-miterlimit="10"/>
</svg>
