<svg width="200" height="57" viewBox="0 0 200 57" fill="none" xmlns="http://www.w3.org/2000/svg">
<circle cx="28.0992" cy="28.0992" r="28.0992" fill="#FFB342"/>
<path d="M36.7769 19.8345H19.4215C18.2804 19.8345 17.3554 20.7595 17.3554 21.9006V34.2973C17.3554 35.4384 18.2804 36.3634 19.4215 36.3634H36.7769C37.9179 36.3634 38.843 35.4384 38.843 34.2973V21.9006C38.843 20.7595 37.9179 19.8345 36.7769 19.8345Z" stroke="#1C2752" stroke-width="1.65289" stroke-linecap="round" stroke-linejoin="round"/>
<path d="M20.6612 23.1401L28.0992 28.9253L35.5372 23.1401" stroke="#1C2752" stroke-width="1.65289" stroke-linecap="round" stroke-linejoin="round"/>
<path d="M66.3341 12.2519H69.4684L72.7789 20.3285H72.9198L76.2303 12.2519H79.3647V24.2729H76.8994V16.4487H76.7996L73.6887 24.2143H72.01L68.8991 16.4194H68.7993V24.2729H66.3341V12.2519ZM83.9826 24.4432C83.4074 24.4432 82.8948 24.3434 82.4448 24.1438C81.9948 23.9403 81.6387 23.641 81.3765 23.2458C81.1182 22.8466 80.9891 22.3497 80.9891 21.7549C80.9891 21.254 81.0811 20.8333 81.265 20.4929C81.4489 20.1525 81.6993 19.8785 82.0163 19.6711C82.3332 19.4638 82.6933 19.3072 83.0963 19.2016C83.5033 19.0959 83.9298 19.0216 84.3759 18.9785C84.9002 18.9237 85.3229 18.8729 85.6437 18.8259C85.9646 18.775 86.1974 18.7007 86.3422 18.6029C86.487 18.505 86.5594 18.3603 86.5594 18.1685V18.1333C86.5594 17.7616 86.442 17.4739 86.2072 17.2705C85.9763 17.067 85.6476 16.9652 85.2211 16.9652C84.7711 16.9652 84.4131 17.065 84.147 17.2646C83.8809 17.4602 83.7048 17.7068 83.6187 18.0042L81.3061 17.8163C81.4235 17.2685 81.6543 16.795 81.9987 16.3959C82.343 15.9928 82.7872 15.6837 83.3311 15.4685C83.8789 15.2493 84.5128 15.1398 85.2329 15.1398C85.7337 15.1398 86.2131 15.1985 86.6709 15.3159C87.1327 15.4333 87.5416 15.6152 87.8977 15.8617C88.2577 16.1083 88.5414 16.4252 88.7488 16.8126C88.9562 17.1961 89.0599 17.6559 89.0599 18.192V24.2729H86.6885V23.0227H86.6181C86.4733 23.3045 86.2796 23.5529 86.037 23.7682C85.7944 23.9795 85.5029 24.1458 85.1624 24.2671C84.822 24.3845 84.4287 24.4432 83.9826 24.4432ZM84.6987 22.7175C85.0665 22.7175 85.3913 22.6451 85.6731 22.5003C85.9548 22.3516 86.1759 22.152 86.3363 21.9016C86.4968 21.6512 86.577 21.3675 86.577 21.0505V20.0938C86.4987 20.1446 86.3911 20.1916 86.2542 20.2346C86.1211 20.2738 85.9705 20.3109 85.8022 20.3462C85.6339 20.3775 85.4657 20.4068 85.2974 20.4342C85.1292 20.4577 84.9765 20.4792 84.8396 20.4988C84.5461 20.5418 84.2898 20.6103 84.0707 20.7042C83.8515 20.7981 83.6813 20.9253 83.56 21.0857C83.4387 21.2423 83.378 21.4379 83.378 21.6727C83.378 22.0131 83.5013 22.2734 83.7478 22.4534C83.9983 22.6294 84.3152 22.7175 84.6987 22.7175ZM90.9998 24.2729V15.2572H93.5003V24.2729H90.9998ZM92.2559 14.095C91.8841 14.095 91.5652 13.9717 91.2991 13.7252C91.037 13.4748 90.9059 13.1754 90.9059 12.8271C90.9059 12.4828 91.037 12.1873 91.2991 11.9408C91.5652 11.6904 91.8841 11.5652 92.2559 11.5652C92.6276 11.5652 92.9446 11.6904 93.2068 11.9408C93.4729 12.1873 93.6059 12.4828 93.6059 12.8271C93.6059 13.1754 93.4729 13.4748 93.2068 13.7252C92.9446 13.9717 92.6276 14.095 92.2559 14.095ZM98.0037 12.2519V24.2729H95.5033V12.2519H98.0037ZM111.304 12.2519H113.846V20.0585C113.846 20.9351 113.637 21.702 113.218 22.3594C112.803 23.0168 112.222 23.5295 111.475 23.8973C110.727 24.2612 109.857 24.4432 108.863 24.4432C107.865 24.4432 106.992 24.2612 106.245 23.8973C105.497 23.5295 104.916 23.0168 104.501 22.3594C104.087 21.702 103.879 20.9351 103.879 20.0585V12.2519H106.421V19.8414C106.421 20.2992 106.521 20.7062 106.72 21.0623C106.924 21.4183 107.209 21.6981 107.577 21.9016C107.945 22.1051 108.373 22.2068 108.863 22.2068C109.356 22.2068 109.784 22.1051 110.148 21.9016C110.516 21.6981 110.8 21.4183 110.999 21.0623C111.203 20.7062 111.304 20.2992 111.304 19.8414V12.2519ZM123.391 17.8281L121.102 17.9689C121.063 17.7733 120.979 17.5972 120.85 17.4407C120.721 17.2802 120.551 17.1531 120.339 17.0592C120.132 16.9613 119.883 16.9124 119.594 16.9124C119.206 16.9124 118.88 16.9946 118.614 17.1589C118.347 17.3194 118.214 17.5346 118.214 17.8046C118.214 18.0198 118.3 18.2018 118.473 18.3505C118.645 18.4992 118.94 18.6185 119.359 18.7085L120.991 19.0372C121.867 19.2172 122.521 19.5068 122.951 19.9059C123.382 20.3051 123.597 20.8294 123.597 21.479C123.597 22.0699 123.423 22.5884 123.074 23.0345C122.73 23.4805 122.257 23.8288 121.654 24.0793C121.055 24.3258 120.365 24.449 119.582 24.449C118.389 24.449 117.438 24.2006 116.729 23.7036C116.025 23.2027 115.612 22.5218 115.491 21.661L117.95 21.5318C118.025 21.8957 118.205 22.1736 118.49 22.3653C118.776 22.5531 119.142 22.6471 119.588 22.6471C120.026 22.6471 120.378 22.5629 120.644 22.3947C120.914 22.2225 121.051 22.0014 121.055 21.7314C121.051 21.5044 120.956 21.3186 120.768 21.1738C120.58 21.0251 120.29 20.9116 119.899 20.8333L118.338 20.5222C117.457 20.3462 116.802 20.0409 116.371 19.6066C115.945 19.1722 115.732 18.6185 115.732 17.9455C115.732 17.3663 115.888 16.8674 116.201 16.4487C116.518 16.03 116.962 15.7072 117.534 15.4802C118.109 15.2533 118.782 15.1398 119.553 15.1398C120.691 15.1398 121.587 15.3804 122.241 15.8617C122.898 16.3431 123.282 16.9985 123.391 17.8281Z" fill="#1C2752"/>
<path d="M67.9095 33.1068V43.9258H66.5994V33.1068H67.9095ZM71.614 39.0446V43.9258H70.3672V35.8116H71.5717V37.0794H71.6773C71.8675 36.6674 72.1563 36.3363 72.5437 36.0863C72.9311 35.8327 73.4312 35.7059 74.044 35.7059C74.5934 35.7059 75.0741 35.8186 75.4862 36.044C75.8982 36.2659 76.2187 36.604 76.4476 37.0583C76.6765 37.5091 76.791 38.0796 76.791 38.7699V43.9258H75.5443V38.8544C75.5443 38.217 75.3787 37.7204 75.0477 37.3647C74.7166 37.0055 74.2623 36.8259 73.6848 36.8259C73.2868 36.8259 72.9311 36.9121 72.6177 37.0847C72.3077 37.2573 72.063 37.5091 71.8834 37.8401C71.7038 38.1712 71.614 38.5727 71.614 39.0446ZM82.6825 35.8116V36.8681H78.3084V35.8116H82.6825ZM79.6185 43.9258V34.6917C79.6185 34.2268 79.7277 33.8394 79.9461 33.5295C80.1644 33.2195 80.4479 32.9871 80.7966 32.8321C81.1452 32.6772 81.5133 32.5997 81.9007 32.5997C82.2071 32.5997 82.4571 32.6244 82.6508 32.6737C82.8445 32.723 82.9889 32.7688 83.084 32.811L82.7248 33.8887C82.6614 33.8676 82.5733 33.8411 82.4606 33.8094C82.3514 33.7777 82.2071 33.7619 82.0274 33.7619C81.6154 33.7619 81.3178 33.8658 81.1347 34.0736C80.9551 34.2814 80.8653 34.586 80.8653 34.9875V43.9258H79.6185ZM87.392 44.0948C86.6595 44.0948 86.0167 43.9205 85.4638 43.5718C84.9144 43.2232 84.4848 42.7354 84.1749 42.1085C83.8685 41.4817 83.7153 40.7491 83.7153 39.9109C83.7153 39.0657 83.8685 38.3279 84.1749 37.6975C84.4848 37.0671 84.9144 36.5776 85.4638 36.2289C86.0167 35.8803 86.6595 35.7059 87.392 35.7059C88.1245 35.7059 88.7655 35.8803 89.3149 36.2289C89.8678 36.5776 90.2975 37.0671 90.6039 37.6975C90.9138 38.3279 91.0688 39.0657 91.0688 39.9109C91.0688 40.7491 90.9138 41.4817 90.6039 42.1085C90.2975 42.7354 89.8678 43.2232 89.3149 43.5718C88.7655 43.9205 88.1245 44.0948 87.392 44.0948ZM87.392 42.9749C87.9484 42.9749 88.4063 42.8323 88.7655 42.547C89.1247 42.2617 89.3906 41.8867 89.5632 41.4218C89.7358 40.9569 89.822 40.4533 89.822 39.9109C89.822 39.3686 89.7358 38.8632 89.5632 38.3948C89.3906 37.9264 89.1247 37.5478 88.7655 37.259C88.4063 36.9702 87.9484 36.8259 87.392 36.8259C86.8356 36.8259 86.3777 36.9702 86.0185 37.259C85.6593 37.5478 85.3934 37.9264 85.2208 38.3948C85.0483 38.8632 84.962 39.3686 84.962 39.9109C84.962 40.4533 85.0483 40.9569 85.2208 41.4218C85.3934 41.8867 85.6593 42.2617 86.0185 42.547C86.3777 42.8323 86.8356 42.9749 87.392 42.9749ZM99.2054 46.7784C98.1277 46.7784 97.1751 46.6305 96.3475 46.3347C95.5199 46.0424 94.8243 45.611 94.2608 45.0404C93.6973 44.4699 93.2712 43.7708 92.9824 42.9432C92.6936 42.1156 92.5492 41.1682 92.5492 40.1011C92.5492 39.0692 92.6954 38.1465 92.9877 37.333C93.2835 36.5195 93.7114 35.8292 94.2714 35.2622C94.8349 34.6917 95.5181 34.2567 96.3211 33.9574C97.1275 33.658 98.0397 33.5083 99.0575 33.5083C100.047 33.5083 100.913 33.6703 101.657 33.9943C102.403 34.3148 103.027 34.7498 103.527 35.2992C104.03 35.845 104.407 36.4596 104.657 37.1428C104.911 37.826 105.037 38.5304 105.037 39.2559C105.037 39.7665 105.013 40.2843 104.964 40.809C104.914 41.3337 104.81 41.8162 104.652 42.2565C104.493 42.6932 104.249 43.0453 103.918 43.313C103.59 43.5806 103.146 43.7145 102.586 43.7145C102.34 43.7145 102.069 43.6757 101.773 43.5983C101.477 43.5208 101.215 43.3922 100.986 43.2126C100.757 43.033 100.621 42.7918 100.579 42.4889H100.516C100.431 42.6932 100.301 42.8869 100.125 43.07C99.952 43.2531 99.7249 43.3993 99.4431 43.5084C99.1649 43.6176 98.825 43.6652 98.4236 43.6511C97.9657 43.6335 97.5625 43.5313 97.2138 43.3447C96.8652 43.1545 96.5729 42.8974 96.3369 42.5734C96.1045 42.2459 95.9284 41.8673 95.8086 41.4376C95.6924 41.0045 95.6343 40.5378 95.6343 40.0377C95.6343 39.5623 95.7047 39.1273 95.8456 38.7329C95.9865 38.3385 96.1819 37.9933 96.432 37.6975C96.6856 37.4017 96.9814 37.1657 97.3195 36.9896C97.6611 36.81 98.0291 36.6991 98.4236 36.6568C98.7757 36.6216 99.0962 36.6374 99.385 36.7044C99.6738 36.7677 99.9115 36.8646 100.098 36.9949C100.285 37.1217 100.403 37.2626 100.452 37.4175H100.516V36.8259H101.635V41.6014C101.635 41.8972 101.718 42.1578 101.884 42.3832C102.049 42.6086 102.29 42.7213 102.607 42.7213C102.967 42.7213 103.241 42.5981 103.432 42.3515C103.625 42.105 103.757 41.7247 103.828 41.2105C103.902 40.6963 103.939 40.0377 103.939 39.2348C103.939 38.7628 103.874 38.298 103.743 37.8401C103.616 37.3788 103.423 36.9474 103.162 36.5459C102.905 36.1444 102.579 35.7904 102.185 35.4841C101.79 35.1777 101.327 34.9382 100.795 34.7656C100.267 34.5895 99.6668 34.5015 98.9941 34.5015C98.1665 34.5015 97.4251 34.63 96.7701 34.8871C96.1186 35.1407 95.5639 35.5122 95.106 36.0018C94.6517 36.4878 94.3048 37.0794 94.0654 37.7767C93.8294 38.4705 93.7114 39.2594 93.7114 40.1434C93.7114 41.0414 93.8294 41.8391 94.0654 42.5364C94.3048 43.2337 94.657 43.8219 95.1219 44.3009C95.5903 44.7798 96.1696 45.1426 96.8599 45.3891C97.5502 45.6391 98.3461 45.7642 99.2477 45.7642C99.6351 45.7642 100.017 45.7272 100.394 45.6532C100.771 45.5793 101.104 45.4983 101.392 45.4102C101.681 45.3222 101.889 45.257 102.016 45.2148L102.312 46.1868C102.093 46.2783 101.808 46.3699 101.456 46.4615C101.107 46.553 100.734 46.6288 100.336 46.6886C99.9415 46.7485 99.5646 46.7784 99.2054 46.7784ZM98.5926 42.5734C99.0645 42.5734 99.4466 42.4783 99.739 42.2881C100.031 42.098 100.244 41.8109 100.378 41.4271C100.512 41.0432 100.579 40.559 100.579 39.9743C100.579 39.3827 100.505 38.9213 100.357 38.5903C100.209 38.2592 99.9908 38.0268 99.702 37.893C99.4132 37.7591 99.0575 37.6922 98.6349 37.6922C98.2334 37.6922 97.89 37.7979 97.6048 38.0092C97.323 38.217 97.1064 38.4952 96.955 38.8438C96.8071 39.189 96.7331 39.5658 96.7331 39.9743C96.7331 40.4251 96.793 40.8495 96.9127 41.2475C97.0325 41.6419 97.2279 41.9624 97.4991 42.2089C97.7703 42.4519 98.1348 42.5734 98.5926 42.5734ZM107.073 43.9258V33.1068H113.602V34.269H108.383V37.9247H113.264V39.0868H108.383V42.7636H113.687V43.9258H107.073ZM116.724 35.8116L118.668 39.1291L120.612 35.8116H122.049L119.429 39.8687L122.049 43.9258H120.612L118.668 40.7773L116.724 43.9258H115.287L117.865 39.8687L115.287 35.8116H116.724ZM126.216 44.116C125.702 44.116 125.235 44.0191 124.816 43.8254C124.397 43.6282 124.064 43.3447 123.817 42.9749C123.571 42.6016 123.448 42.1508 123.448 41.6225C123.448 41.1577 123.539 40.7808 123.722 40.492C123.905 40.1997 124.15 39.9708 124.457 39.8053C124.763 39.6398 125.101 39.5165 125.471 39.4355C125.844 39.351 126.219 39.2841 126.596 39.2348C127.089 39.1714 127.489 39.1238 127.795 39.0921C128.105 39.0569 128.331 38.9988 128.471 38.9178C128.616 38.8368 128.688 38.6959 128.688 38.4952V38.4529C128.688 37.9317 128.545 37.5267 128.26 37.2379C127.978 36.9491 127.551 36.8047 126.976 36.8047C126.381 36.8047 125.915 36.935 125.577 37.1956C125.238 37.4563 125.001 37.7345 124.863 38.0303L123.68 37.6077C123.891 37.1146 124.173 36.7308 124.525 36.4561C124.881 36.1778 125.268 35.9841 125.687 35.875C126.11 35.7623 126.526 35.7059 126.934 35.7059C127.195 35.7059 127.494 35.7376 127.832 35.801C128.174 35.8609 128.503 35.9859 128.82 36.1761C129.141 36.3663 129.406 36.6533 129.618 37.0372C129.829 37.421 129.935 37.9352 129.935 38.5797V43.9258H128.688V42.827H128.625C128.54 43.0031 128.399 43.1915 128.202 43.3922C128.005 43.593 127.742 43.7638 127.415 43.9047C127.087 44.0455 126.688 44.116 126.216 44.116ZM126.406 42.996C126.899 42.996 127.315 42.8992 127.653 42.7055C127.994 42.5118 128.251 42.2617 128.424 41.9553C128.6 41.6489 128.688 41.3267 128.688 40.9886V39.8476C128.635 39.9109 128.519 39.9691 128.339 40.0219C128.163 40.0712 127.959 40.1152 127.727 40.1539C127.498 40.1892 127.274 40.2209 127.056 40.249C126.841 40.2737 126.667 40.2948 126.533 40.3124C126.209 40.3547 125.906 40.4234 125.624 40.5185C125.346 40.61 125.12 40.7491 124.948 40.9358C124.779 41.1189 124.694 41.369 124.694 41.6859C124.694 42.1191 124.855 42.4466 125.175 42.6685C125.499 42.8869 125.909 42.996 126.406 42.996ZM132.21 43.9258V35.8116H133.415V37.0794H133.52C133.689 36.6462 133.962 36.3099 134.339 36.0704C134.716 35.8274 135.169 35.7059 135.697 35.7059C136.232 35.7059 136.678 35.8274 137.033 36.0704C137.393 36.3099 137.673 36.6462 137.873 37.0794H137.958C138.166 36.6603 138.477 36.3275 138.893 36.081C139.308 35.831 139.807 35.7059 140.388 35.7059C141.113 35.7059 141.707 35.9331 142.168 36.3874C142.629 36.8382 142.86 37.5408 142.86 38.4952V43.9258H141.613V38.4952C141.613 37.8965 141.45 37.4686 141.122 37.2115C140.795 36.9544 140.409 36.8259 139.965 36.8259C139.395 36.8259 138.953 36.9984 138.639 37.3436C138.326 37.6852 138.169 38.1184 138.169 38.6431V43.9258H136.901V38.3684C136.901 37.907 136.752 37.5355 136.452 37.2538C136.153 36.9685 135.767 36.8259 135.295 36.8259C134.971 36.8259 134.668 36.9121 134.387 37.0847C134.109 37.2573 133.883 37.4968 133.711 37.8032C133.542 38.106 133.457 38.4564 133.457 38.8544V43.9258H132.21ZM145.14 46.9686V35.8116H146.344V37.1006H146.492C146.584 36.9597 146.71 36.7801 146.872 36.5617C147.038 36.3398 147.274 36.1426 147.58 35.9701C147.89 35.794 148.309 35.7059 148.838 35.7059C149.521 35.7059 150.123 35.8767 150.644 36.2183C151.165 36.56 151.572 37.0442 151.865 37.6711C152.157 38.298 152.303 39.0375 152.303 39.8898C152.303 40.7491 152.157 41.494 151.865 42.1244C151.572 42.7513 151.167 43.2373 150.649 43.5824C150.132 43.924 149.535 44.0948 148.859 44.0948C148.337 44.0948 147.92 44.0085 147.607 43.836C147.293 43.6599 147.052 43.4609 146.883 43.239C146.714 43.0136 146.584 42.827 146.492 42.6791H146.386V46.9686H145.14ZM146.365 39.8687C146.365 40.4815 146.455 41.0221 146.635 41.4905C146.814 41.9553 147.077 42.3198 147.422 42.584C147.767 42.8446 148.19 42.9749 148.69 42.9749C149.211 42.9749 149.646 42.8375 149.994 42.5628C150.347 42.2846 150.611 41.9113 150.787 41.4429C150.966 40.971 151.056 40.4463 151.056 39.8687C151.056 39.2982 150.968 38.784 150.792 38.3261C150.62 37.8648 150.357 37.5003 150.005 37.2326C149.656 36.9614 149.218 36.8259 148.69 36.8259C148.182 36.8259 147.756 36.9544 147.411 37.2115C147.066 37.4651 146.805 37.8208 146.629 38.2786C146.453 38.7329 146.365 39.2629 146.365 39.8687ZM155.451 33.1068V43.9258H154.205V33.1068H155.451ZM161.137 44.0948C160.355 44.0948 159.681 43.9223 159.114 43.5771C158.55 43.2285 158.115 42.7425 157.809 42.1191C157.506 41.4922 157.355 40.7632 157.355 39.9321C157.355 39.1009 157.506 38.3684 157.809 37.7345C158.115 37.097 158.541 36.6005 159.087 36.2448C159.637 35.8855 160.278 35.7059 161.01 35.7059C161.433 35.7059 161.85 35.7764 162.262 35.9172C162.674 36.0581 163.049 36.287 163.387 36.604C163.725 36.9174 163.995 37.333 164.196 37.8507C164.396 38.3684 164.497 39.0058 164.497 39.763V40.2913H158.242V39.2136H163.229C163.229 38.7558 163.137 38.3473 162.954 37.988C162.775 37.6288 162.517 37.3453 162.183 37.1375C161.852 36.9297 161.461 36.8259 161.01 36.8259C160.514 36.8259 160.084 36.9491 159.721 37.1956C159.362 37.4386 159.085 37.7556 158.892 38.1465C158.698 38.5374 158.601 38.9565 158.601 39.4038V40.1222C158.601 40.735 158.707 41.2545 158.918 41.6806C159.133 42.1033 159.431 42.4255 159.811 42.6474C160.191 42.8657 160.633 42.9749 161.137 42.9749C161.464 42.9749 161.76 42.9291 162.024 42.8375C162.292 42.7425 162.523 42.6016 162.716 42.4149C162.91 42.2248 163.06 41.9888 163.165 41.7071L164.37 42.0451C164.243 42.4537 164.03 42.8129 163.731 43.1228C163.431 43.4292 163.062 43.6687 162.621 43.8413C162.181 44.0103 161.686 44.0948 161.137 44.0948ZM167.302 44.0103C167.041 44.0103 166.818 43.917 166.631 43.7303C166.444 43.5437 166.351 43.32 166.351 43.0594C166.351 42.7988 166.444 42.5752 166.631 42.3885C166.818 42.2019 167.041 42.1085 167.302 42.1085C167.562 42.1085 167.786 42.2019 167.973 42.3885C168.159 42.5752 168.253 42.7988 168.253 43.0594C168.253 43.232 168.209 43.3905 168.121 43.5349C168.036 43.6793 167.922 43.7955 167.777 43.8835C167.636 43.968 167.478 44.0103 167.302 44.0103ZM173.786 44.0948C173.026 44.0948 172.371 43.9152 171.821 43.556C171.272 43.1968 170.849 42.702 170.553 42.0716C170.257 41.4412 170.11 40.721 170.11 39.9109C170.11 39.0868 170.261 38.3596 170.564 37.7292C170.87 37.0953 171.296 36.6005 171.842 36.2448C172.392 35.8855 173.033 35.7059 173.765 35.7059C174.336 35.7059 174.85 35.8116 175.308 36.0229C175.766 36.2342 176.141 36.53 176.433 36.9104C176.725 37.2907 176.907 37.7345 176.977 38.2416H175.73C175.635 37.8718 175.424 37.5443 175.096 37.259C174.772 36.9702 174.336 36.8259 173.786 36.8259C173.3 36.8259 172.874 36.9526 172.508 37.2062C172.145 37.4563 171.862 37.8102 171.657 38.268C171.457 38.7223 171.356 39.2559 171.356 39.8687C171.356 40.4956 171.455 41.0414 171.652 41.5063C171.853 41.9712 172.135 42.3322 172.497 42.5893C172.864 42.8464 173.293 42.9749 173.786 42.9749C174.11 42.9749 174.404 42.9185 174.669 42.8059C174.933 42.6932 175.156 42.5312 175.339 42.3198C175.523 42.1085 175.653 41.855 175.73 41.5591H176.977C176.907 42.0381 176.732 42.4695 176.454 42.8534C176.179 43.2337 175.815 43.5366 175.361 43.762C174.91 43.9839 174.385 44.0948 173.786 44.0948ZM182.096 44.0948C181.363 44.0948 180.721 43.9205 180.168 43.5718C179.618 43.2232 179.189 42.7354 178.879 42.1085C178.572 41.4817 178.419 40.7491 178.419 39.9109C178.419 39.0657 178.572 38.3279 178.879 37.6975C179.189 37.0671 179.618 36.5776 180.168 36.2289C180.721 35.8803 181.363 35.7059 182.096 35.7059C182.829 35.7059 183.469 35.8803 184.019 36.2289C184.572 36.5776 185.001 37.0671 185.308 37.6975C185.618 38.3279 185.773 39.0657 185.773 39.9109C185.773 40.7491 185.618 41.4817 185.308 42.1085C185.001 42.7354 184.572 43.2232 184.019 43.5718C183.469 43.9205 182.829 44.0948 182.096 44.0948ZM182.096 42.9749C182.652 42.9749 183.11 42.8323 183.469 42.547C183.829 42.2617 184.095 41.8867 184.267 41.4218C184.44 40.9569 184.526 40.4533 184.526 39.9109C184.526 39.3686 184.44 38.8632 184.267 38.3948C184.095 37.9264 183.829 37.5478 183.469 37.259C183.11 36.9702 182.652 36.8259 182.096 36.8259C181.54 36.8259 181.082 36.9702 180.722 37.259C180.363 37.5478 180.097 37.9264 179.925 38.3948C179.752 38.8632 179.666 39.3686 179.666 39.9109C179.666 40.4533 179.752 40.9569 179.925 41.4218C180.097 41.8867 180.363 42.2617 180.722 42.547C181.082 42.8323 181.54 42.9749 182.096 42.9749ZM187.676 43.9258V35.8116H188.88V37.0794H188.986C189.155 36.6462 189.428 36.3099 189.805 36.0704C190.182 35.8274 190.634 35.7059 191.162 35.7059C191.698 35.7059 192.143 35.8274 192.499 36.0704C192.858 36.3099 193.138 36.6462 193.339 37.0794H193.423C193.631 36.6603 193.943 36.3275 194.358 36.081C194.774 35.831 195.272 35.7059 195.853 35.7059C196.579 35.7059 197.172 35.9331 197.634 36.3874C198.095 36.8382 198.326 37.5408 198.326 38.4952V43.9258H197.079V38.4952C197.079 37.8965 196.915 37.4686 196.588 37.2115C196.26 36.9544 195.875 36.8259 195.431 36.8259C194.86 36.8259 194.418 36.9984 194.105 37.3436C193.791 37.6852 193.635 38.1184 193.635 38.6431V43.9258H192.367V38.3684C192.367 37.907 192.217 37.5355 191.918 37.2538C191.618 36.9685 191.233 36.8259 190.761 36.8259C190.437 36.8259 190.134 36.9121 189.852 37.0847C189.574 37.2573 189.349 37.4968 189.176 37.8032C189.007 38.106 188.923 38.4564 188.923 38.8544V43.9258H187.676Z" fill="#7E7E7E"/>
</svg>
